<svg width="1163" height="830" viewBox="0 0 1163 830" fill="none" xmlns="http://www.w3.org/2000/svg">
<g clip-path="url(#clip0_247_753)">
<path d="M686.817 110.238C924.743 145.041 1086.14 328.151 1047.31 519.226C1008.48 710.301 784.122 836.984 546.197 802.182C308.271 767.379 -26.3945 558.925 12.4368 367.85C51.2682 176.775 448.892 75.436 686.817 110.238Z" fill="white"/>
<path d="M750.182 159.798C957.466 242.277 1050.77 444.022 958.834 610.332C866.892 776.642 624.391 844.766 417.108 762.286C313.463 721.045 200.508 634.934 124.98 538.314C87.2172 490.007 58.8266 439.093 45.625 389.87C32.4234 340.647 34.4186 293.149 57.3699 251.633C80.3213 210.117 122.093 178.446 175.144 155.586C228.196 132.725 292.491 118.692 360.417 112.439C496.274 99.9314 646.537 118.556 750.182 159.798Z" stroke="black" stroke-opacity="0.1"/>
<path d="M697.016 784.395C449.375 878.502 163.645 793.531 58.7292 594.815C-46.1862 396.1 69.3184 158.654 316.96 64.5472C440.783 17.4926 619.291 -1.94287 779.969 15.2584C860.305 23.8586 936.156 41.6145 998.47 69.6362C1060.78 97.6577 1109.53 135.927 1135.72 185.544C1161.92 235.16 1163.12 291.495 1146.28 349.598C1129.44 407.7 1094.55 467.537 1048.63 524.117C956.781 637.282 820.84 737.341 697.016 784.395Z" stroke="black" stroke-opacity="0.1"/>
</g>
<defs>
<clipPath id="clip0_247_753">
<rect width="1163" height="830" fill="white"/>
</clipPath>
</defs>
</svg>
