<svg width="989" height="784" viewBox="0 0 989 784" fill="none" xmlns="http://www.w3.org/2000/svg">
<g clip-path="url(#clip0_184_756)">
<path opacity="0.1" d="M507.608 705.775C287.287 764.682 68.0098 659.779 17.7139 471.664C-32.5819 283.55 105.083 83.2117 325.404 24.3049C435.569 -5.14963 585.66 -4.38482 714.501 27.2937C778.918 43.1323 837.997 66.6922 884.108 98.0445C930.218 129.397 963.33 168.519 975.886 215.48C988.442 262.441 979.272 312.868 954.961 363.048C930.65 413.229 891.212 463.129 843.294 509.003C747.454 600.754 617.772 676.321 507.608 705.775Z" stroke="black"/>
<path opacity="0.13" d="M809.373 206.438C932.022 354.368 911.528 573.715 763.599 696.364C615.669 819.013 396.321 798.519 273.672 650.59C212.332 576.605 164.425 457.778 150.368 342.098C136.308 226.394 156.13 114.026 230.001 52.7797C303.871 -8.46676 417.966 -7.12936 529.063 28.1207C640.137 63.3637 748.033 132.454 809.373 206.438Z" stroke="black"/>
<path opacity="0.1" d="M769.8 196.739C876.918 325.936 859.019 517.508 729.822 624.626C600.625 731.743 409.053 713.845 301.935 584.647C248.36 520.029 206.515 416.24 194.237 315.196C181.956 214.13 199.273 116 263.777 62.5186C328.282 9.03772 427.922 10.1986 524.964 40.9893C621.984 71.7729 716.225 132.121 769.8 196.739Z" stroke="black"/>
<path opacity="0.1" d="M757.712 203.246C860.086 326.721 842.979 509.808 719.504 612.181C596.029 714.555 412.942 697.449 310.568 573.974C259.365 512.216 219.372 413.02 207.637 316.448C195.899 219.853 212.451 126.072 274.095 74.963C335.738 23.8542 430.963 24.9612 523.712 54.3897C616.439 83.8111 706.509 141.489 757.712 203.246Z" stroke="black"/>
<path opacity="0.05" d="M744.934 210.123C842.293 327.55 826.025 501.668 708.598 599.027C591.171 696.386 417.053 680.118 319.694 562.691C270.998 503.958 232.962 409.618 221.801 317.772C210.638 225.903 226.381 136.718 285.001 88.117C343.62 39.5156 434.177 40.5656 522.388 68.5542C610.577 96.5358 696.238 151.39 744.934 210.123Z" stroke="black"/>
</g>
<defs>
<clipPath id="clip0_184_756">
<rect width="989" height="784" fill="white"/>
</clipPath>
</defs>
</svg>
