<svg width="989" height="805" viewBox="0 0 989 805" fill="none" xmlns="http://www.w3.org/2000/svg">
<g clip-path="url(#clip0_187_767)">
<path opacity="0.1" d="M364.108 171.944C536.316 121.29 751.606 174.94 845.047 291.577C938.488 408.213 874.882 543.897 702.673 594.551C616.569 619.878 488.26 628.365 369.78 615.91C310.543 609.684 253.794 598.225 206.025 581.037C158.255 563.849 119.509 540.947 96.1937 511.844C72.878 482.741 67.1498 450.128 74.4111 416.753C81.6725 383.378 101.918 349.272 130.487 317.218C187.628 253.107 278.003 197.27 364.108 171.944Z" stroke="black"/>
<path opacity="0.1" d="M91.8064 257.787C207.441 79.071 489.659 -30.6323 722.212 12.8688C954.764 56.3698 1049.41 236.569 933.774 415.284C875.937 504.673 755.354 609.382 620.131 686.303C484.898 763.231 335.186 812.278 219.03 790.55C102.875 768.822 42.1068 680.403 24.8753 574.955C7.64518 469.516 33.9697 347.175 91.8064 257.787Z" stroke="black"/>
<path opacity="0.08" d="M101.758 454.311C-2.50146 324.451 60.0732 175.694 241.737 122.115C423.4 68.5366 655.145 130.489 759.405 260.35C811.559 325.31 840.993 418.679 834.657 502.517C828.319 586.361 786.219 660.551 695.506 687.306C604.792 714.06 482.492 688.357 369.726 639.64C256.97 590.927 153.912 519.271 101.758 454.311Z" stroke="black"/>
<path opacity="0.1" d="M136.166 481.829C18.9798 370.902 54.5007 226.958 215.638 160.345C376.775 93.7318 602.385 129.726 719.571 240.654C778.188 296.14 819.981 380.12 826.952 458.567C833.925 537.024 806.059 609.817 725.604 643.077C645.149 676.336 527.174 663.832 414.528 629.06C301.898 594.292 194.783 537.316 136.166 481.829Z" stroke="black"/>
<path opacity="0.05" d="M166.629 474.525C60.1226 373.706 92.4031 242.875 238.864 182.33C385.324 121.784 590.38 154.501 696.887 255.32C750.164 305.752 788.153 382.086 794.49 453.392C800.827 524.708 775.497 590.866 702.38 621.092C629.263 651.318 522.04 639.957 419.647 608.349C317.269 576.746 219.907 524.957 166.629 474.525Z" stroke="black"/>
</g>
<defs>
<clipPath id="clip0_187_767">
<rect width="989" height="805" fill="white"/>
</clipPath>
</defs>
</svg>
