<svg width="1163" height="905" viewBox="0 0 1163 905" fill="none" xmlns="http://www.w3.org/2000/svg">
<g clip-path="url(#clip0_277_805)">
<path d="M565.238 896.623C339.54 933.875 126.713 783.144 89.8759 559.956C53.0384 336.769 206.14 125.641 431.837 88.3892C657.535 51.1374 1034.72 174.74 1071.56 397.928C1108.4 621.115 790.935 859.371 565.238 896.623Z" fill="white"/>
<path d="M670.192 854.713C461.277 947.222 217.768 854.738 126.294 648.159C34.8188 441.58 130.01 199.116 338.924 106.607C443.404 60.3429 594.627 43.4775 731.177 64.0289C867.751 84.584 989.456 142.535 1035.14 245.713C1080.83 348.89 1041.94 477.955 965.363 592.895C888.801 707.814 774.671 808.449 670.192 854.713Z" stroke="black" stroke-opacity="0.1"/>
<path d="M607.729 863.539C387.261 923.514 160.467 795.396 101.162 577.393C41.8571 359.389 172.494 134.036 392.962 74.0608C503.219 44.0668 655.257 50.1791 787.152 91.07C919.07 131.968 1030.65 207.595 1060.27 316.479C1089.89 425.362 1032 547.094 938.979 649.183C845.976 751.255 717.986 833.545 607.729 863.539Z" stroke="black" stroke-opacity="0.1"/>
<path d="M441.597 843.584C177.942 815.685 -16.3724 610.876 7.39394 386.271C31.1603 161.665 264.035 2.05839 527.69 29.9567C659.522 43.9063 822.093 107.182 948.727 195.081C1012.04 239.028 1066.35 289.116 1103.34 342.247C1140.33 395.378 1159.98 451.52 1154.04 507.602C1148.11 563.683 1117.14 614.47 1069.86 658.683C1022.57 702.897 958.978 740.509 887.868 770.233C745.642 829.683 573.429 857.533 441.597 843.584Z" stroke="black" stroke-opacity="0.1"/>
</g>
<defs>
<clipPath id="clip0_277_805">
<rect width="1163" height="905" fill="white"/>
</clipPath>
</defs>
</svg>
